<svg width="72" height="50" viewBox="0 0 72 50" fill="none" xmlns="http://www.w3.org/2000/svg">
<path d="M45.6305 0L41.1351 9.77744H28.3176L28.2519 9.91558L23.6289 19.9731L23.5632 20.1113H36.2261L31.7307 29.8887L31.665 30.0269L27.042 40.0806L26.9763 40.2226L22.4809 50H0L4.49541 40.2226H17.1583L17.2202 40.0806L21.847 30.0269L21.9088 29.8887H9.2498L13.7452 20.1113L13.8109 19.9731L18.4339 9.91558L18.4996 9.77744H18.345L22.8404 0H45.6305Z" fill="#FFD369"/>
<path d="M59.2252 0.138184L54.7916 9.77748H44.9736L49.4033 0.138184H59.2252Z" fill="#3F1F45"/>
<path d="M71.9962 0L67.1993 10.4336L62.8159 19.9731L49.005 50H39.187L52.9941 19.9731H50.3076L55.0582 9.63546H57.7485L62.1782 0H71.9962Z" fill="#3F1F45"/>
<path d="M49.832 19.9731L36.025 50H26.2031L40.014 19.9731H49.832Z" fill="#3F1F45"/>
<path d="M46.6663 20.1113H46.5117" stroke="black" stroke-miterlimit="10"/>
</svg>
